<?xml version="1.0" encoding="utf-8"?>
<!-- Generator: Adobe Illustrator 22.1.0, SVG Export Plug-In . SVG Version: 6.00 Build 0)  -->
<svg version="1.1" id="Base_x5F_Logo_x5F_Black" xmlns="http://www.w3.org/2000/svg" xmlns:xlink="http://www.w3.org/1999/xlink"
	 x="0px" y="0px" viewBox="0 0 372.9 750.4" style="enable-background:new 0 0 372.9 750.4;" xml:space="preserve">
<style type="text/css">
	.st0{clip-path:url(#SVGID_2_);}
	.st1{fill-rule:evenodd;clip-rule:evenodd;}
</style>
<g>
	<defs>
		<rect id="SVGID_1_" x="0" width="372.9" height="750.4"/>
	</defs>
	<clipPath id="SVGID_2_">
		<use xlink:href="#SVGID_1_"  style="overflow:visible;"/>
	</clipPath>
	<g class="st0">
		<path class="st1" d="M179.2,631.7h30.1l65.2,44.1c0.8-4.8,1.3-9.7,1.3-14.8c0-49.4-40-89.4-89.4-89.4c-38.1,0-70.5,23.8-83.4,57.3
			l90.8,61.4h-30.1l-65.4-44.2C97.5,651,97,655.9,97,661c0,49.4,40,89.4,89.4,89.4c38.1,0,70.5-23.9,83.4-57.4L179.2,631.7z"/>
		<polygon class="st1" points="201.1,558.2 255.4,381.9 117.5,381.9 171.7,558.2 201.1,558.2 		"/>
		<polyline class="st1" points="259.8,367.2 314.2,190.9 245.2,190.9 215.8,279 186.5,213 157.1,279 127.7,190.9 58.8,190.9 
			112.9,367.2 157.1,367.2 186.5,301.1 215.8,367.2 259.8,367.2 		"/>
		<polyline class="st1" points="201.1,367.2 201.1,352.5 171.7,352.5 171.7,367.2 201.1,367.2 		"/>
		<polyline class="st1" points="318.6,176.3 330,139.6 252.5,139.6 252.5,102.7 341.3,102.7 350.3,73.4 252.5,73.4 252.5,36.7 
			361.5,36.7 372.9,0 193.8,0 193.8,176.3 318.6,176.3 		"/>
		<polyline class="st1" points="179.2,176.3 179.2,88.1 120.3,88.1 120.3,124.8 142.3,124.8 142.3,139.6 110.5,139.6 76.3,36.7 
			142.3,36.7 142.3,44 179.2,44 179.2,0 0,0 54.2,176.3 179.2,176.3 		"/>
	</g>
</g>
</svg>
