<?xml version="1.0" encoding="utf-8"?>
<!DOCTYPE svg PUBLIC "-//W3C//DTD SVG 20010904//EN" "http://www.w3.org/TR/2001/REC-SVG-20010904/DTD/svg10.dtd">
<svg version="1.0" xmlns="http://www.w3.org/2000/svg" width="2000px" height="2296px" viewBox="0 0 2000 2296" preserveAspectRatio="xMidYMid meet">
 <g fill="#ffffff">
  <path d="M399.8 2156.4 c-2.7 -0.5 -8 -1.4 -12.1 -1.9 -10 -1.3 -17.4 -5.3 -23.7 -12.4 -10.1 -11.7 -9.2 1.7 -9.1 -152 0.1 -134.2 0.3 -143.8 3.6 -149.2 0.8 -1.2 1.7 -4 2.1 -6.2 0.8 -4.6 6 -15 9.3 -18.6 1.2 -1.2 5.4 -3.9 9.2 -5.8 6.4 -3.2 8.3 -3.6 16.8 -3.9 21.5 -0.4 64.4 -1.4 83.1 -1.9 10.9 -0.3 25.6 -0.8 32.7 -0.9 l12.9 -0.2 -0.4 -298.5 c-0.2 -164.2 -0.5 -440.3 -0.8 -613.6 l-0.4 -315.1 -3.3 -1.7 c-1.9 -1 -4 -2.4 -4.6 -3.2 -0.6 -0.9 -4 -2.9 -7.4 -4.6 -3.4 -1.7 -6.6 -4 -7.3 -5 -0.5 -1.2 -1.8 -2 -2.8 -2 -2.1 0 -10.6 -4.9 -11.8 -6.8 -1.2 -1.9 -13.1 -8.3 -15.5 -8.3 -1 0 -4 -0.9 -6.4 -2 -2.6 -1.1 -7.7 -3 -11.6 -4.3 -3.9 -1.4 -10.8 -3.8 -15.5 -5.5 -16.8 -5.8 -36.8 -11.5 -45.9 -13 -3.4 -0.5 -7.2 -1.5 -8.4 -2.1 -4.1 -2.1 -18.6 -3.9 -38.5 -4.7 -17.9 -0.6 -27 -2.1 -33.2 -5.4 -5.3 -2.8 -14 -12.3 -16.9 -18.4 l-2.9 -6.2 0 -162.9 0 -162.9 2.9 -5 c7.2 -12.2 23.3 -20.5 35.9 -18.5 2.7 0.4 17.3 0.6 32.4 0.5 21.8 -0.1 45.9 0 55.3 0.1 0.6 0 20.9 -0.2 45 -0.6 24.2 -0.3 47.1 -0.5 50.9 -0.5 3.9 0.1 7.9 0.1 9.1 0.1 1.2 0 9.4 0 18.2 0 8.9 0 16.6 0 17.1 -0.1 0.6 0 20.9 -0.2 45 -0.5 37.1 -0.5 48.9 -0.6 59.8 -0.4 0.6 0 25.2 -0.3 54.3 -0.6 29.2 -0.3 59.9 -0.6 68.4 -0.5 8.4 0 15.9 0.1 16.6 0.1 0.6 0 21.1 -0.3 45.2 -0.6 24.2 -0.3 47.1 -0.5 50.9 -0.5 3.9 0 7.8 0.1 8.9 0.1 3.1 0 33.9 0 35.4 0 24.1 -0.5 76 -1.3 87.9 -1.2 8.7 0 16.4 0.1 17.1 0.1 0.6 0 25.2 -0.3 54.3 -0.6 110.4 -1.3 128.7 -1.1 167.2 2.8 18.1 1.7 39.2 5 57.7 8.9 4.3 1 9.2 1.7 10.8 1.7 3.8 0 34.6 8 49.2 12.8 3.8 1.3 7.7 2.3 8.9 2.3 1.9 0 22.1 7.1 29.4 10.2 1.8 0.9 6.9 2.7 11.3 4.1 10.1 3.4 12.9 4.5 31.6 13.1 3 1.3 6.8 2.8 8.5 3.1 1.7 0.4 5.7 2.5 8.8 4.5 3.2 1.9 6.2 3.6 6.6 3.6 1.5 0 9.6 4.2 10.4 5.4 0.3 0.5 1.3 1.1 2 1.1 0.8 0 6.3 2.8 12.5 6.2 6.1 3.5 13.6 7.6 16.5 9.3 3 1.6 7.1 4.2 9.1 5.8 2 1.6 6.4 4.3 9.6 6 7.1 3.8 21 13 22 14.5 0.3 0.6 2.5 2 4.6 3.1 2.1 1.2 7.1 4.7 10.8 8 3.9 3.3 7.4 6 7.9 6 0.6 0 3.9 2.5 7.3 5.4 3.4 3 6.6 5.4 7.2 5.4 0.5 0 5.3 4 10.5 8.9 5.3 4.9 10.3 9.4 11.3 10 1.9 1.1 26.7 24.1 30.3 28.2 1.2 1.4 4.2 4.3 6.4 6.4 2.4 2.1 4.9 4.8 5.9 5.9 1 1.2 4.4 5 7.6 8.7 3.2 3.6 7.7 8.8 9.9 11.4 2.3 2.6 6.6 7.6 10 11 3.2 3.5 5.9 6.9 5.9 7.4 0 1 2.3 3.8 10 12.8 1.8 2.3 3.6 4.7 4 5.6 0.3 0.9 3.2 4.7 6.4 8.7 3.2 3.9 6.9 8.7 8 10.6 1.2 1.9 5.1 7.9 8.9 13.4 3.6 5.4 6.6 10.5 6.6 11.4 0 0.8 1.6 3.5 3.5 6.1 5.6 7.4 8.8 12.8 13.5 22.1 2.5 4.8 6.1 11.5 8.3 14.8 2.1 3.3 4.4 7.8 4.9 9.9 0.6 2.1 2.5 6.3 4.2 9.2 4.5 7.6 4.6 7.9 7.8 14.9 1.5 3.3 2.8 6.6 2.8 7.3 0 1 7.9 19.7 13 30.5 1.1 2.4 2 5.4 2 6.6 0 1.4 0.8 4.2 1.7 6.4 4.4 10.2 12 33.9 14.7 45.2 0.9 3.9 3.3 13.5 5.4 21.4 5 18.9 7.1 28.6 8.3 39.1 0.5 4.7 1.9 14.9 3.1 22.5 5 33 6 47.5 6 90.6 0 25.3 -0.5 46.1 -1.4 53.6 -4.7 43.7 -11 81.2 -17.9 105.6 -1.5 5.4 -3.4 12.8 -4.2 16.6 -2.4 11 -4.9 19 -13.1 40.4 -1.4 3.6 -2.6 7.7 -2.6 9.1 0 1.4 -0.4 3 -1 3.6 -0.5 0.5 -1.9 3.8 -3.2 7.1 -1.2 3.4 -2.7 7.1 -3.3 8 -2.3 4.2 -7.5 16.8 -7.5 18.2 0 1 -3.3 7.9 -7.3 15.8 -4.1 7.8 -7.7 15.5 -8.1 17.3 -0.4 1.8 -1.9 4.7 -3.2 6.4 -1.4 1.8 -3.9 5.9 -5.6 9.1 -1.6 3.2 -3.6 6.5 -4.4 7.3 -0.8 0.8 -1.4 2.4 -1.4 3.4 0 1.1 -3 6.5 -6.8 12 -3.8 5.5 -7.9 12.1 -9.4 14.8 -1.4 2.7 -4.5 7.5 -6.9 10.7 -2.4 3.2 -5.3 7.7 -6.3 10.1 -1.1 2.3 -3.4 5.8 -5.4 8 -4.4 5 -10.3 12.5 -10.3 13.3 0 0.3 -1.4 2.1 -3.1 4.2 -3.2 3.5 -4.7 5.6 -11.9 15.4 -2 2.9 -5.9 7.4 -8.6 10.1 -2.7 2.6 -6.8 7.2 -9.1 10.2 -5.5 6.8 -11.6 13.4 -17.7 19.4 -2.7 2.6 -5.6 5.5 -6.4 6.3 -7.2 7.5 -25.3 24.9 -27.1 26.2 -1.3 0.9 -6.4 5.4 -11.5 10.1 -5 4.6 -15.4 13.3 -23.2 19.1 -7.7 5.8 -14.9 11.6 -16 12.8 -1.1 1.2 -2.5 2.1 -3.1 2.1 -0.6 0 -4.7 2.9 -9 6.3 -4.3 3.4 -9.3 7 -11.3 7.7 -1.9 0.8 -4.8 2.6 -6.5 4 -1.8 1.4 -4.2 3 -5.5 3.4 -1.2 0.4 -4.5 2.6 -7.3 4.7 -2.8 2.1 -5.5 3.9 -6 3.9 -0.5 0 -3.5 1.7 -6.6 3.9 -8 5.4 -45 24.8 -53.6 28.1 -2 0.8 -4.6 1.9 -5.8 2.6 -7.3 4.1 -19.2 9.3 -23.6 10.5 -3.2 0.9 -16.5 6.1 -24.7 9.6 -2.4 1.1 -6.6 2.7 -9.6 3.6 -2.9 0.9 -12.3 3.9 -20.9 6.5 -16.2 5 -21.9 6.5 -49.3 12.9 -59.7 13.7 -104.1 16.8 -202.6 14.1 -16.8 -0.4 -42.3 -1 -56.8 -1.3 -14.5 -0.2 -38 -0.8 -52.5 -1 -35.5 -0.8 -81.6 -0.9 -82.2 -0.3 -0.2 0.3 -0.4 3.8 -0.3 7.6 0.1 3.9 0.1 8.1 0.1 9.5 0 1.3 0 5.3 0 8.8 0.1 3.5 0 7.4 0 8.6 0 1.2 0 5.3 0 9.1 0.1 3.9 0 8.9 -0.1 11.3 -0.1 6 -1 125.4 -0.9 131.3 0 2.7 0 5.8 0 7 -0.1 1.2 -0.1 5 -0.1 8.6 0 3.5 0 7.1 0 7.8 0 0.6 0 4.4 0 8.3 0 3.9 0 8 0 9.4 0 1.3 0 5.3 0 8.8 0.1 3.5 0.1 7.3 0.1 8.4 0 1 0 4.9 0 8.8 0 3.9 -0.1 8 -0.1 9.4 0 1.3 0 5.3 0.1 8.8 0 3.5 0 7.4 -0.1 8.6 0 1.2 0 5.3 0 9.1 0.1 3.9 0.1 7.7 0.1 8.6 -0.4 25.8 -0.3 84.9 0 85.3 0.3 0.2 9.6 0.6 20.8 1 49.3 1.2 74 1.7 89.3 1.7 23.9 0 32.6 2.9 38.7 12.8 1.5 2.4 3.2 4.3 3.8 4.3 2.4 0 6.8 6 10.1 13.5 3 6.9 3.3 8.8 3.3 18.8 0 6.1 0.1 12.1 0.2 13.3 0 1.2 0 3.9 -0.1 5.9 -0.1 2 0.1 15.5 0.4 30 0.8 32.9 1.6 72.2 2.3 105.6 0.2 14.1 0.8 39 1.1 55.2 0.4 16.2 0.6 30.4 0.6 31.6 0 1.2 0.8 5.3 1.6 8.9 3.8 16.3 -5.7 34.2 -22 41.8 l-6.1 2.9 -92.7 0.2 c-51 0.1 -154.4 0.5 -229.9 0.9 -75.5 0.4 -137.9 0.6 -138.8 0.6 -0.9 0 -4.7 0 -8.6 0 -3.9 0 -7.9 0 -9.1 0 -1.2 0 -5 0.1 -8.6 0 -3.5 0 -7.5 0 -8.8 0 -1.4 0 -5.6 0.1 -9.4 0.1 -3.9 0 -7.8 0 -8.8 0 -1.1 0 -3.6 0 -5.7 -0.1 -2 0 -27.7 0.1 -56.8 0.4 -29.2 0.3 -55.9 0.5 -59.5 0.5 -9.4 -0.1 -10.6 -0.2 -18.4 -0.1 -4.1 0 -9 0.1 -11 0.2 -2 0.1 -4.5 0.1 -5.4 0.1 -0.9 0 -4.5 -0.1 -8 -0.3 -3.5 -0.1 -7.4 0 -8.6 0.3 -1.2 0.3 -4.3 0.1 -7 -0.3z m655.9 -175.1 l0 -104.5 -83.6 0 -83.7 0 0.8 -261.2 c0.3 -143.7 1 -261.6 1.4 -262.1 0.3 -0.3 15.6 -1 33.9 -1.4 18.3 -0.4 34.9 -1 37 -1.2 2 -0.1 9.5 -0.6 16.6 -1 7.1 -0.3 16.3 -1.2 20.4 -1.7 7.9 -1.2 37.8 -9.2 39.8 -10.7 0.5 -0.5 3.8 -1.6 7 -2.5 6.9 -1.8 32.3 -13.9 36.9 -17.6 0.6 -0.4 4 -2.8 7.5 -5.3 3.6 -2.4 7.2 -5.1 7.9 -6.1 0.8 -1 2 -1.7 2.8 -1.7 3.5 0 35.4 -32.2 40.7 -41.1 1.2 -2 3.1 -5 4.2 -6.8 8.3 -12.2 11.4 -17.6 11.4 -19 0 -1 1.6 -5 3.6 -9 10.4 -20.8 15.1 -44.7 15.1 -75.9 0 -31 -4.7 -54.6 -15.1 -75.6 -2 -4.1 -3.6 -7.9 -3.6 -8.5 0 -1.5 -7.3 -13.7 -11.5 -19.3 -1.9 -2.6 -3.5 -5.3 -3.5 -6 0 -0.8 -1.7 -3.2 -3.9 -5.5 -2.1 -2.4 -5.4 -6.1 -7.2 -8.4 -1.9 -2.4 -6.5 -7.2 -10.3 -10.7 -3.9 -3.6 -8.1 -7.8 -9.5 -9.4 -1.5 -1.7 -3.1 -3 -3.6 -3 -0.5 0 -4.2 -2.6 -8.1 -5.7 -8 -6.4 -12.4 -9.3 -14 -9.3 -0.6 0 -3.6 -1.6 -6.8 -3.5 -9.8 -6.1 -19.1 -10 -34.6 -14.5 -17.5 -5 -22.3 -6.1 -35.4 -7.7 -5.3 -0.8 -12 -1.9 -15 -2.7 -2.9 -0.9 -10.9 -2.6 -17.7 -3.8 -16.3 -3 -22.5 -4.8 -31.9 -9.2 -4.3 -2 -8.3 -3.6 -8.8 -3.6 -0.6 0 -1.9 -0.4 -3 -1 -1 -0.5 -8.8 -4.5 -17.4 -8.8 -17.7 -8.8 -33 -16.7 -38.8 -20 -5.1 -2.9 -16.3 -10.2 -16.9 -11 -1.4 -1.8 -20.9 -14.1 -29 -18.4 -5 -2.6 -12.5 -6.9 -16.6 -9.5 -4.1 -2.7 -8.6 -5.3 -9.9 -5.7 -1.5 -0.4 -3.2 -2.4 -4.1 -4.4 -2.5 -6 -15.2 -24 -21.9 -31 -3.4 -3.5 -8.4 -9.8 -10.9 -13.9 -2.7 -4.1 -6.1 -8.9 -7.7 -10.7 -1.5 -1.7 -3.8 -5.3 -4.8 -7.6 -1.2 -2.5 -2.8 -5.1 -3.5 -5.9 -2.5 -2.6 -11 -17.5 -11.9 -20.8 -0.5 -1.7 -2.3 -5.1 -3.9 -7.5 -1.6 -2.4 -3.8 -6.4 -4.8 -9.1 -1.1 -2.7 -2.8 -6.3 -4 -8.1 -1.1 -1.8 -2 -4.1 -2 -4.9 0 -1.9 -17.9 -29.3 -24.2 -37 -2.6 -3.2 -4.7 -6.4 -4.7 -7.1 0 -0.5 -1.8 -3.5 -4.1 -6.5 -2.3 -3 -6 -8.8 -8.3 -13 -10.2 -18.6 -34.9 -44.9 -49.8 -53.1 -3.9 -2 -8.6 -5.3 -10.7 -7 -4.2 -3.6 -8.7 -5.9 -11.8 -5.9 -1.2 0 -3.8 -0.9 -5.9 -1.8 -3.6 -1.7 -4.1 -1.7 -7.3 0 l-3.4 1.8 -0.1 114.5 c-0.1 177 -1.6 819.3 -2.1 912.9 -0.2 46 -0.4 116.7 -0.4 157.3 l0 73.6 -82.5 0 -82.5 0 0 104.5 0 104.5 315.1 0 315.1 0 0 -104.5z m205.3 -618.4 c23 -2.3 43.1 -5.5 66.5 -10.7 4.2 -1 10.2 -2.1 13.4 -2.6 7.4 -1.2 14.5 -3.1 35 -9.9 9 -2.9 17.1 -5.3 18.1 -5.3 1 0 3.2 -0.6 5 -1.5 14.1 -6.1 33.2 -13.5 34.8 -13.5 1 0 3.3 -1 5.3 -2 1.8 -1.2 5.9 -3.2 9.1 -4.5 3.1 -1.3 6.4 -3 7.3 -3.6 0.9 -0.8 4.5 -2.5 8 -3.9 3.5 -1.4 7.7 -3.3 9.3 -4.4 1.5 -1.1 3.2 -1.9 3.8 -1.9 0.5 0 4.3 -2.1 8.4 -4.6 4.2 -2.6 8.8 -5 10.3 -5.4 1.5 -0.4 3.9 -1.7 5.4 -3 1.4 -1.2 4.7 -3.3 7.4 -4.7 2.7 -1.4 5.8 -3.4 6.9 -4.7 1.2 -1.3 2.9 -2.3 4 -2.3 1.1 0 3.3 -1.2 5 -2.7 1.8 -1.5 3.6 -2.7 4.3 -2.7 0.6 0 1.3 -0.4 1.5 -0.9 0.5 -1.3 10.6 -8.8 11.9 -8.8 0.5 0 2.6 -1.3 4.6 -2.9 8.4 -7 15.2 -12.1 16.1 -12.1 0.5 0 3.9 -2.7 7.4 -6 3.5 -3.3 7.6 -6.6 9.1 -7.4 1.5 -0.8 6.1 -4.6 10.2 -8.5 4.2 -3.9 7.8 -7.1 8.3 -7.1 0.4 0 1.4 -0.6 2.1 -1.5 8.7 -9.2 13.2 -13.5 14.5 -13.5 0.8 0 1.4 -0.3 1.4 -0.9 0 -0.4 2.1 -3.1 4.8 -6 2.7 -2.9 4.8 -5.7 4.8 -6.2 0 -0.4 0.4 -0.9 1 -0.9 1.5 0 8.7 -6.6 8.7 -8 0 -0.6 1.2 -2.3 2.7 -3.5 1.5 -1.3 2.7 -2.8 2.7 -3.4 0 -0.5 0.6 -1.1 1.5 -1.1 0.8 0 3.1 -2.3 5 -4.9 2 -2.8 5.4 -6.9 7.4 -9.1 2 -2.3 5.3 -6.1 7 -8.5 1.8 -2.5 4.2 -5.5 5.4 -6.6 2.6 -2.7 7.8 -9.9 15.9 -21.8 3.2 -4.7 6.9 -9.4 8 -10.5 1.2 -1.1 2.8 -3.5 3.5 -5.4 0.8 -1.9 3.6 -6.5 6.3 -10.4 2.7 -3.9 5.9 -8.9 7.2 -11.3 6.1 -11.9 8 -15 9.4 -15.9 0.9 -0.4 1.6 -1.6 1.6 -2.5 0 -0.9 1.2 -3.4 2.7 -5.6 1.5 -2.1 2.7 -4.4 2.7 -5 0 -0.6 2.1 -5.3 4.7 -10.2 10.1 -19.5 10.3 -20 10.3 -21.3 0 -0.6 1.7 -4.8 3.9 -9.4 2.1 -4.6 4.2 -9.3 4.7 -10.5 0.5 -1.2 2.1 -4.9 3.6 -8.3 1.5 -3.3 2.8 -7.1 2.8 -8.3 0 -1.3 1 -4.3 2 -6.9 3.2 -7 13 -36.3 13 -39 0 -1.4 1.5 -7.6 3.3 -13.9 4.8 -16.6 10.4 -43.2 11.6 -55.6 0.6 -5.8 2.1 -18.8 3.3 -28.8 2.8 -23.3 4 -72.5 2.3 -95.9 -3 -41.8 -7.7 -73.3 -15.3 -102.9 -2.4 -9.1 -4.9 -19.5 -5.7 -23 -1.4 -6.4 -8.5 -27.7 -11.7 -35 -0.9 -2.1 -2.1 -6.1 -2.8 -8.8 -0.5 -2.7 -2.8 -8.5 -4.8 -12.9 -2 -4.4 -3.8 -8.4 -3.8 -8.7 0 -0.3 -1.4 -3.5 -3.2 -7.2 -1.7 -3.5 -3.2 -7.1 -3.2 -7.8 0 -1.3 -12.1 -25.6 -13.8 -27.9 -0.5 -0.5 -1.3 -2.6 -1.6 -4.4 -0.4 -1.8 -1.6 -4.3 -2.6 -5.4 -1 -1.2 -2.5 -3.2 -3.1 -4.7 -0.8 -1.5 -2.6 -4.6 -4 -7 -1.5 -2.4 -4.1 -7 -5.7 -10.2 -1.6 -3.2 -4 -7.1 -5.3 -8.6 -2.6 -2.9 -6.2 -8.7 -7.9 -12.6 -0.6 -1.4 -1.7 -3.1 -2.5 -3.9 -0.8 -0.8 -3.2 -4.2 -5.6 -7.6 -2.4 -3.5 -5.1 -7.2 -6.1 -8.3 -1.1 -1.1 -1.9 -2.4 -1.9 -2.9 0 -0.5 -3.3 -5.3 -7.4 -10.4 -7.2 -9.3 -9.9 -12.5 -17.7 -21.4 -2.1 -2.5 -3.9 -4.7 -3.9 -5.1 0 -2 -60.8 -62.8 -62.8 -62.8 -0.4 0 -2.7 -1.7 -5.1 -3.9 -8.6 -7.5 -12 -10.3 -20.5 -16.9 -4.7 -3.6 -10.1 -7.6 -12 -8.8 -1.8 -1.1 -7.4 -4.9 -12.3 -8.5 -9.4 -6.9 -11.8 -8.4 -15.4 -10.1 -1.3 -0.5 -4 -2.5 -5.9 -4.2 -2 -1.7 -6.3 -4.4 -9.5 -6 -3.2 -1.6 -7.8 -4.2 -10.2 -5.6 -2.4 -1.4 -5.5 -3.2 -7 -4 -1.5 -0.6 -3.6 -2.1 -4.7 -3.1 -1.2 -1.1 -2.7 -1.9 -3.3 -1.9 -0.6 0 -8.4 -3.6 -17.1 -8 -8.9 -4.4 -16.6 -8 -17.3 -8 -0.8 0 -4.2 -1.5 -7.7 -3.2 -3.6 -1.8 -6.9 -3.2 -7.2 -3.2 -0.3 0 -4.3 -1.7 -8.7 -3.8 -4.4 -2 -10.1 -4.2 -12.8 -4.8 -2.6 -0.5 -7.3 -2 -10.4 -3.3 -8.9 -3.5 -28.8 -10.3 -33 -11 -2 -0.4 -11.3 -2.7 -20.4 -4.9 -9.1 -2.3 -19.5 -4.9 -23 -5.7 -20.8 -5 -81.1 -11.6 -105.6 -11.4 l-10.2 0 3.8 1.7 c7.9 3.6 10.6 4.6 12.2 4.6 0.9 0 4.7 1.4 8.4 3 3.8 1.7 8.5 3.8 10.5 4.5 2 0.8 4.9 2.3 6.4 3.2 3.6 2.4 8.4 4.3 10.4 4.3 1 0 2.6 0.6 3.4 1.5 1 0.8 4.6 3 8.1 4.8 3.4 1.9 6.6 3.8 7 4.3 0.3 0.4 3.3 1.9 6.8 3.3 3.3 1.4 6.1 2.9 6.1 3.3 0 0.4 3 2.7 6.8 4.8 3.6 2.3 6.9 4.5 7 4.9 0.2 0.5 2.7 2 5.4 3.5 2.8 1.4 7.9 4.9 11.5 7.9 3.4 3 6.8 5.5 7.2 5.5 1.1 0 1.9 0.8 10.1 8.4 3.3 3.1 7.5 6.4 9.1 7.4 1.7 1.1 3.1 2.5 3.1 3.2 0 0.8 0.4 1.4 1 1.4 1.3 0 23.7 22.4 23.7 23.7 0 0.5 0.6 1 1.4 1 0.8 0 2.1 1.4 3.2 3.1 1 1.6 4.3 5.8 7.4 9.1 7.6 8.1 8.4 9 8.4 10.1 0 0.4 2.5 3.8 5.5 7.2 3 3.5 6 7.5 6.6 8.9 0.5 1.3 1.5 2.4 2 2.4 0.4 0 0.9 1 0.9 2.1 0 1.1 0.6 2.5 1.4 2.9 0.8 0.4 3.2 3.9 5.5 7.5 2.3 3.8 4.4 6.8 4.9 6.8 0.4 0 1.9 2.8 3.3 6.1 1.3 3.4 2.8 6.4 3.1 6.8 1.3 1 11.8 20 11.8 21.3 0 0.6 2.1 5.7 4.7 11.1 7.4 15.5 9.1 19.6 9.8 22.8 0.4 1.7 1.2 4.1 1.7 5.3 4.2 9.4 12.4 38.5 14.9 52.5 11.7 67.2 11.7 95.7 0 162.9 -4 22.8 -22.5 78.2 -28.4 85.2 -0.8 0.9 -1.9 3.8 -2.7 6.4 -0.8 2.7 -1.9 5.6 -2.7 6.4 -0.8 0.9 -2.9 4.5 -4.7 8 -1.9 3.4 -3.8 6.6 -4.3 7 -0.4 0.3 -1.7 2.8 -2.8 5.7 -1.1 2.8 -3.1 6.3 -4.5 8 -1.4 1.6 -3.9 5 -5.4 7.7 -1.6 2.7 -3.5 5.5 -4.3 6.2 -0.8 0.8 -1.4 2 -1.4 2.9 0 0.8 -0.3 1.6 -0.8 1.8 -0.5 0.2 -2.6 2.8 -4.6 5.7 -2 3 -5 6.8 -6.6 8.4 -1.6 1.7 -3 3.5 -3 4.1 0 1.3 -1.3 2.9 -7.7 9.6 -2.8 2.9 -6 6.8 -7.3 8.5 -3.2 4.5 -27.7 28.9 -28.9 28.9 -0.6 0 -1.1 0.5 -1.1 1.1 0 1.4 -5.3 6.4 -6.5 6.4 -0.5 0 -3.3 2.3 -6.2 5.1 -7.1 6.6 -11 9.9 -12.5 9.9 -0.6 0 -2 1.1 -3.2 2.3 -1.1 1.3 -4.2 3.8 -6.9 5.6 -2.7 1.8 -5 3.5 -5.4 4 -0.3 0.3 -4.4 3 -9.1 5.8 -4.7 2.9 -9.4 6 -10.4 7.1 -1 1.1 -4.1 2.8 -7 3.9 -2.8 1.1 -5.4 2.3 -5.7 2.8 -0.3 0.4 -3.5 2.3 -7 4.2 -3.5 1.8 -7.2 4 -8 4.6 -2.1 1.7 -7.3 3.9 -9.2 3.9 -1 0 -3 0.9 -4.5 1.9 -1.6 1.1 -4.6 2.7 -6.6 3.4 -2 0.8 -6.8 2.8 -10.4 4.4 -3.6 1.7 -9.2 3.8 -12.3 4.7 -3.1 1 -8.4 2.8 -11.6 3.9 -12 4.4 -38.8 11.7 -42.8 11.7 -2.3 0 -5.5 0.4 -7.2 1 -1.7 0.5 -4.9 1.3 -7.2 1.7 -4.6 0.8 -4.5 1.4 1.9 8.6 4.4 5 4.3 4.8 9.4 11.8 2.1 3 4.6 6.1 5.4 7 0.9 0.9 3.1 4.6 5.1 8.4 1.9 3.6 4 6.6 4.3 6.6 1.3 0 9.5 11.7 9.5 13.4 0 0.9 0.4 1.6 0.9 1.6 1.2 0 14.1 19.7 14.1 21.5 0 0.9 1.2 3.2 2.5 5.3 3.8 5.6 12.5 25.3 12.5 28.2 0 1.3 0.4 2.9 1 3.5 1.8 1.8 6.9 19.2 11 37.9 2.3 10.4 2.5 13.6 2.5 43.4 0 33.3 -0.4 37.8 -5.6 57.9 -2.5 9.8 -6.9 23.5 -7.9 24.7 -0.5 0.5 -1 2 -1 3.3 0 3.6 -9.2 24.2 -13.1 29.3 -1.1 1.4 -1.9 3.3 -1.9 4.3 0 1.5 -10.4 18.1 -13.9 22.3 -0.5 0.8 -1.1 1.6 -1.1 2 0 1 -6.3 9 -9.6 12.3 -1.5 1.5 -4 4.4 -5.4 6.4 -2.8 4 -24.4 25.6 -25.6 25.6 -1.2 0 -12.3 10.6 -11.8 11.1 0.8 0.8 6.1 1.6 14.9 2.4 4.4 0.4 8.3 0.9 8.5 1.1 0.2 0.2 20 0.4 43.9 0.4 30.3 0 48.3 -0.5 59.6 -1.6z m-155.9 -459.4 c24.1 -1.6 42.6 -5.1 64.8 -12.1 4.7 -1.5 10.8 -3.2 13.5 -3.8 2.8 -0.6 11.3 -3.9 18.8 -7.2 7.6 -3.3 15.6 -6.6 17.9 -7.5 4.4 -1.6 15.6 -7.6 22.7 -12 2.4 -1.5 6.8 -4 9.6 -5.6 3 -1.5 7.8 -4.7 10.7 -7 3 -2.3 6.6 -4.6 8.1 -5.3 1.5 -0.6 5.9 -4 9.8 -7.4 3.9 -3.3 8.8 -7.5 11 -9.1 4.7 -3.3 17 -14.7 23.5 -21.5 2.5 -2.6 6.8 -6.9 9.5 -9.6 2.9 -2.7 5.9 -6.1 6.6 -7.6 0.8 -1.5 3.2 -4.6 5.4 -7 2.3 -2.4 5.5 -6.2 7.4 -8.6 1.8 -2.4 3.6 -4.5 4.2 -4.6 0.4 -0.2 1.4 -1.9 2.3 -3.8 0.8 -1.9 3.2 -5.8 5.5 -8.8 2.3 -2.9 5.5 -7.7 7 -10.7 1.6 -2.9 4.1 -7.3 5.6 -9.6 4.4 -7.1 10.4 -18.3 12 -22.7 0.9 -2.3 4.2 -10.3 7.5 -17.9 3.3 -7.5 6.5 -16 7.2 -18.8 0.5 -2.7 2.3 -8.8 3.8 -13.5 11.5 -36.4 15.5 -76.8 12.2 -122.1 -1.9 -26.4 -4 -37.8 -10.9 -61.2 -1.8 -5.9 -3.9 -13.3 -4.7 -16.5 -1.5 -6.4 -4.4 -14.1 -9.2 -24.8 -1.8 -3.9 -4.2 -9.3 -5.3 -12.1 -3.6 -9.3 -20.6 -38.8 -27 -47.2 -2.1 -2.9 -4 -5.8 -4 -6.4 0 -0.8 -1.1 -2.5 -2.5 -4 -3.9 -4.2 -11.8 -13.5 -14.1 -16.7 -5.7 -7.7 -33.8 -36.1 -37.9 -38.4 -1 -0.5 -3 -2.3 -4.5 -3.8 -1.5 -1.5 -4.4 -4 -6.3 -5.5 -2 -1.5 -5.8 -4.6 -8.5 -6.9 -2.7 -2.3 -6.4 -4.8 -8.3 -5.6 -1.8 -0.8 -4.8 -2.6 -6.4 -4 -3.5 -2.8 -12 -8 -20.8 -12.9 -3.2 -1.7 -9 -4.8 -12.9 -7 -3.9 -2 -11.8 -7 -17.7 -10.8 -5.9 -4 -12.4 -7.7 -14.5 -8.6 -2 -0.8 -7.1 -3 -11.3 -4.9 -11 -5.1 -16.6 -7.6 -21.4 -9.4 -2.4 -0.9 -7 -2.6 -10.2 -4 -3.2 -1.3 -7.2 -2.7 -8.9 -2.9 -1.6 -0.3 -3.2 -1 -3.5 -1.5 -0.3 -0.5 -1.6 -1 -2.9 -1 -1.3 0 -4.5 -1.3 -7.2 -2.8 -4.2 -2.4 -12.5 -5 -28.2 -9.1 -2.3 -0.5 -8 -1.2 -12.9 -1.4 -4.8 -0.2 -10.7 -0.9 -13.1 -1.6 -3.1 -0.8 -100.4 -1.2 -346.4 -1.2 -315 0 -342.6 -0.1 -347.3 -1.7 -10.3 -3.5 -19.9 -1.1 -26.9 7 -5.7 6.6 -5.7 6.1 -6.6 49.7 -0.5 22.5 -1.2 52.3 -1.5 66.1 -2.1 91.3 -2.1 93.2 0.4 100.2 3 8 4 9.1 11.8 13.3 7.4 4 28 9.8 41.8 11.9 10 1.5 34.4 8.3 53.8 14.9 10.2 3.4 26.5 9 36.2 12.3 9.8 3.4 23.8 8.7 31.3 11.9 7.5 3.2 14.3 5.9 15.1 5.9 0.9 0 5.4 1.7 10 3.9 13 5.8 13.1 5.9 30.8 12.5 1.7 0.5 6 3 9.4 5.3 3.5 2.3 10.4 6.2 15.2 8.7 4.8 2.6 11.9 6.5 15.8 8.9 3.9 2.4 9.1 5.4 11.8 6.6 2.7 1.3 8.4 4.9 12.6 8.3 4.3 3.2 8.1 5.9 8.6 5.9 1 0 9.9 6.3 13.1 9.4 1.4 1.3 4.5 3.3 7 4.5 4.4 2.1 49.9 46.3 51.2 49.7 0.3 1 3 5.1 5.9 9.4 2.9 4.3 7.2 11.3 9.3 15.3 2.3 4.2 5.1 9 6.4 10.7 1.4 1.8 3.8 6.3 5.4 10.2 1.7 3.9 3.8 7.7 4.7 8.6 1 0.9 4.3 7.9 7.4 15.5 9.6 23.7 24.3 51.4 32 61 1.4 1.6 3.2 4.5 4 6.4 1.3 3 5.1 8 10.6 13.7 1 1.1 1.8 2.3 1.8 2.6 0 0.3 0.6 1.2 1.4 2 0.6 0.8 2.8 3.2 4.5 5.5 7.3 9.3 35.3 37.6 38.5 39 1.2 0.5 2.1 1.3 8.6 7.1 1.6 1.4 3.1 2.6 3.4 2.6 0.4 0 2.9 2.1 5.6 4.8 2.7 2.7 5.5 4.8 6.2 4.8 0.6 0 4.1 2.1 7.6 4.6 9.2 7 37.2 22.8 46.5 26.6 2.9 1.1 8.1 3.4 11.9 5.1 9.4 4.4 17.8 7.5 24.5 9.1 3.2 0.9 10.6 2.9 16.5 4.7 34.6 10.4 73.5 13.9 118.4 10.8z"/>
 </g>
</svg>