<?xml version="1.0" encoding="utf-8"?>
<!DOCTYPE svg PUBLIC "-//W3C//DTD SVG 20010904//EN" "http://www.w3.org/TR/2001/REC-SVG-20010904/DTD/svg10.dtd">
<svg version="1.0" xmlns="http://www.w3.org/2000/svg" width="2000px" height="2296px" viewBox="0 0 2000 2296" preserveAspectRatio="xMidYMid meet">
 <g fill="#000000">
  <path d="M384.2 2151.8 c-10.3 -3.5 -16.1 -8 -21.9 -16.7 -4.8 -7.1 -5.5 -21.5 -5.5 -144.7 0 -148.2 1 -157.9 17.4 -173.3 7.1 -6.8 11.3 -7.1 80.4 -9 l73 -1.9 -0.6 -615.4 -0.3 -615.4 -13.2 -8.4 c-7.4 -4.5 -18.6 -11.6 -24.8 -15.8 -25.1 -16.7 -97.4 -36.7 -152.1 -41.5 -18 -1.9 -24.1 -3.9 -32.2 -11.3 l-10.3 -9 -1 -165.9 -1 -165.6 9 -10 9 -9.6 102.9 -1.6 c171.4 -2.3 739.5 -6.4 791 -5.8 86.2 1 171.1 17.7 250.8 50.2 35 14.5 110.6 57.6 136.7 78.1 109 86.8 177.2 180.1 221.9 303.5 39.2 108 46.6 249.2 19.3 365 -44.1 185.9 -171.1 345.7 -340.8 429.3 -49.8 24.4 -78.5 35 -130.2 47.9 -77.8 19.3 -96.1 20.6 -262.7 18.3 l-150.5 -2.3 0 194.5 0 194.9 64.6 0 c41.5 0 66.9 1.3 71.4 3.5 3.9 1.9 11.9 8.7 17.7 14.5 9.6 10.3 10.3 12.5 10.6 34.4 0 12.5 0.6 27.7 1.3 32.8 0.3 5.5 1.3 42.1 1.6 82 0.6 39.9 1.9 89.1 3.2 109.3 1.9 29.3 1.6 38.9 -1.9 45.7 -10 19 11.9 18 -372.7 19.9 -194.5 1 -356.6 0.6 -360.1 -0.6z m670.4 -169.5 l0 -104.5 -82.6 0 -82.3 0 1.9 -259.5 c1.3 -187.8 2.9 -259.8 5.5 -261.4 2.3 -1.3 26.4 -3.2 54 -4.2 53.1 -1.9 68.2 -4.5 97.1 -15.8 53.4 -20.6 108.7 -75.6 122.2 -121.2 10.9 -37.3 12.5 -60.5 5.8 -94.2 -7.7 -37 -22.5 -68.8 -45 -94.9 -28.6 -33.4 -62.7 -51.8 -119 -63.7 -74.6 -15.4 -119 -35.4 -175.2 -77.8 -50.5 -37.9 -74.3 -66.2 -101 -119.9 -9.3 -18.3 -21.2 -40.2 -26.7 -48.2 -5.8 -8 -18 -25.7 -27.7 -39.5 -20.6 -30.2 -54.7 -58.5 -74.3 -61.7 -7.1 -1.3 -13.5 -1.6 -14.5 -1 -2.9 3.2 -4.2 228.3 -4.5 738.3 l0 524.8 -82 0 -82 0 0 104.5 0 104.5 315.1 0 315.1 0 0 -104.5z m271.7 -629.6 c147.3 -33.4 266.9 -111.3 354 -230.5 21.5 -29.3 46.9 -74.6 62.4 -110.9 65.3 -152.7 62.4 -327.3 -7.4 -479.1 -72.3 -157.6 -216.4 -276.5 -387.5 -319.9 -32.5 -8 -91.6 -16.1 -117.7 -15.8 l-19.6 0 11.3 4.2 c80.4 29.6 157.2 93.6 200.3 166.2 37.6 63.7 53.4 117.4 55.9 191.6 2.9 73 -11.6 139.5 -43.1 198.1 -2.6 4.8 -6.4 12.2 -8.4 16.1 -25.7 48.2 -90.4 112.5 -145.3 144.1 -31.2 18 -73.6 34.1 -122.5 46.9 l-10.3 2.6 24.1 33.8 c27.7 38.9 36.7 55.6 48.6 89.7 7.7 22.2 8.4 28.9 8.4 72.7 0 43.7 -0.6 50.5 -8.4 72.7 -15.4 44.7 -31.5 70.4 -64 103.2 -11.9 11.9 -20.6 22.5 -19.3 23.5 1 1.3 36 1.6 77.5 0.6 65.3 -1.3 80.4 -2.6 110.9 -9.6z m-196.1 -449.2 c46.3 -6.8 108 -32.2 144.1 -59.2 47.9 -36 80.4 -74.3 105.1 -123.5 27.7 -55.6 37.3 -104.8 34.4 -172.7 -5.5 -119 -71.1 -220.9 -182.3 -282.3 -35 -19.6 -77.5 -39.9 -102.9 -49.2 l-24.1 -9 -369.8 -1.9 c-203.2 -1 -372.3 -0.3 -375.6 1 -3.2 1.6 -7.1 5.8 -8.4 9.6 -1.6 3.9 -3.9 53.7 -5.1 110.6 l-2.3 103.5 8 8 c8 8 11.6 9.3 56.9 19.6 31.2 7.1 71.1 20.6 126.4 42.1 67.5 26.4 119.6 57.9 159.5 95.8 32.2 31.2 43.7 48.9 72.7 112.5 31.2 68.8 84.2 124.4 153.7 161.1 28.6 15.1 70.7 29.6 98.7 33.4 25.7 3.9 84.9 3.9 110.9 0.3z"/>
 </g>
</svg>