<?xml version="1.0" standalone="no"?>
<!DOCTYPE svg PUBLIC "-//W3C//DTD SVG 20010904//EN"
 "http://www.w3.org/TR/2001/REC-SVG-20010904/DTD/svg10.dtd">
<svg version="1.0" xmlns="http://www.w3.org/2000/svg"
 width="2296.000000pt" height="2296.000000pt" viewBox="0 0 2296.000000 2296.000000"
 preserveAspectRatio="xMidYMid meet">
<metadata>
Created by potrace 1.14, written by Peter Selinger 2001-2017
</metadata>
<g transform="translate(0.000000,2296.000000) scale(0.100000,-0.100000)"
fill="#000000" stroke="none">
<path d="M11280 21643 c-2054 -11 -5719 -47 -6399 -61 l-304 -7 -89 -97 -89
-96 11 -1659 11 -1658 23 -20 c168 -145 191 -156 387 -180 237 -29 351 -46
504 -76 328 -65 698 -177 890 -268 87 -41 459 -268 508 -309 16 -14 17 -320
17 -6162 l0 -6148 -157 -6 c-87 -3 -338 -11 -558 -16 -434 -11 -667 -24 -729
-41 -49 -13 -133 -92 -169 -157 -15 -27 -33 -78 -41 -113 -38 -166 -41 -278
-41 -1539 0 -1269 2 -1336 41 -1412 26 -51 105 -122 169 -154 l60 -29 2520 2
c2482 1 3992 13 4335 33 201 12 340 33 390 59 26 13 44 35 69 84 31 60 35 77
39 169 2 57 -1 190 -7 297 -10 185 -18 464 -42 1506 -17 728 -24 915 -39 965
-11 36 -35 66 -115 146 -55 56 -115 109 -132 117 -58 30 -195 38 -785 44
l-588 6 0 1945 0 1945 278 -7 c1229 -28 2616 -31 2907 -6 267 23 497 63 840
145 607 147 976 283 1510 559 1357 702 2430 1888 3014 3333 240 595 371 1155
433 1853 17 186 16 875 0 1065 -58 665 -167 1179 -359 1695 -409 1101 -1010
1960 -1928 2756 -305 264 -566 440 -1055 711 -329 182 -518 272 -770 366 -633
236 -1282 372 -1985 417 -142 9 -1264 10 -2575 3z m2988 -687 c486 -64 777
-130 1152 -258 1103 -379 2087 -1090 2783 -2013 341 -452 596 -918 798 -1456
570 -1526 486 -3231 -231 -4666 -313 -627 -617 -1051 -1104 -1539 -236 -235
-389 -370 -621 -544 -542 -407 -1202 -735 -1878 -935 -357 -105 -641 -164
-882 -184 -293 -25 -1400 -39 -1421 -19 -12 13 45 84 199 246 234 245 347 397
456 611 110 216 209 486 235 642 34 207 29 862 -8 1034 -8 39 -33 124 -56 190
-121 348 -212 512 -559 998 -90 126 -161 230 -159 232 1 1 71 21 153 44 898
244 1390 515 1974 1085 330 323 516 564 697 905 271 512 409 975 455 1529 15
186 6 720 -16 892 -59 474 -164 829 -361 1221 -219 438 -416 713 -753 1050
-195 194 -352 328 -551 469 -236 167 -535 330 -795 433 -77 30 -147 58 -155
61 -8 3 91 4 220 2 173 -4 286 -12 428 -30z m-3278 -66 l1545 -9 184 -70 c559
-214 1196 -550 1546 -814 365 -276 676 -618 891 -979 245 -412 386 -834 446
-1333 21 -173 17 -715 -5 -885 -52 -387 -148 -693 -331 -1055 -150 -295 -300
-515 -508 -745 -179 -198 -451 -431 -661 -568 -351 -228 -945 -457 -1300 -502
-156 -19 -503 -32 -702 -26 -338 11 -473 28 -690 86 -816 217 -1535 727 -1989
1410 -114 171 -180 293 -295 537 -266 566 -372 733 -631 994 -435 437 -975
765 -1750 1062 -576 222 -873 317 -1300 417 -118 28 -251 62 -294 77 -72 23
-87 33 -157 102 l-76 76 13 560 c16 692 31 1180 45 1390 11 175 25 222 77 260
26 19 48 20 552 26 607 7 3159 2 5390 -11z m-3369 -4109 c152 -58 363 -222
534 -417 82 -94 394 -535 473 -668 30 -50 118 -213 197 -362 240 -455 342
-602 589 -850 362 -362 886 -719 1321 -900 219 -90 490 -170 865 -255 571
-127 887 -293 1168 -609 246 -278 412 -637 488 -1055 28 -153 26 -434 -4 -583
-31 -156 -85 -339 -125 -425 -146 -316 -498 -689 -857 -910 -163 -100 -412
-204 -595 -248 -125 -29 -311 -47 -665 -64 -380 -18 -540 -32 -558 -49 -19
-18 -30 -317 -42 -1131 -11 -781 -30 -3140 -30 -3722 l0 -353 820 0 820 0 0
-1045 0 -1045 -3150 0 -3150 0 0 1045 0 1045 820 0 820 0 0 2473 c0 1359 2
3199 5 4087 3 888 7 2391 10 3340 5 1659 17 2677 31 2715 6 15 17 17 83 12 42
-3 101 -15 132 -26z"/>
</g>
</svg>
